<svg height="512" viewBox="0 0 60 60" width="512" xmlns="http://www.w3.org/2000/svg"><g id="Page-1" fill="none" fill-rule="evenodd"><g id="011---Goals"><path id="Path" d="m39 14v32c0 5.5228475 4.4771525 10 10 10v1c-.0032948 1.1032019-.8967981 1.9967052-2 2h-40c-1.10320187-.0032948-1.9967052-.8967981-2-2v-54c.0032948-1.10320187.89679813-1.9967052 2-2h40c1.1032019.0032948 1.9967052.89679813 2 2v1c-2.6521649 0-5.195704 1.0535684-7.0710678 2.92893219-1.8753638 1.87536378-2.9289322 4.41890291-2.9289322 7.07106781z" fill="#e8edfc"/><path id="Path" d="m49 4v-1c-.0032948-1.10320187-.8967981-1.9967052-2-2h-3c1.1032019.0032948 1.9967052.89679813 2 2v1c-5.5228475 0-10 4.4771525-10 10v32c0 5.5228475 4.4771525 10 10 10v1c-.0032948 1.1032019-.8967981 1.9967052-2 2h3c1.1032019-.0032948 1.9967052-.8967981 2-2v-1c-2.6521649 0-5.195704-1.0535684-7.0710678-2.9289322s-2.9289322-4.4189029-2.9289322-7.0710678v-32c0-5.5228475 4.4771525-10 10-10z" fill="#cad9fc"/><circle id="Oval" cx="10" cy="30" fill="#a4c2f7" r="2"/><circle id="Oval" cx="10" cy="20" fill="#a4c2f7" r="2"/><circle id="Oval" cx="10" cy="10" fill="#a4c2f7" r="2"/><circle id="Oval" cx="10" cy="50" fill="#a4c2f7" r="2"/><circle id="Oval" cx="10" cy="40" fill="#a4c2f7" r="2"/><path id="Path" d="m59 14v32c0 5.5228475-4.4771525 10-10 10s-10-4.4771525-10-10v-32c0-5.5228475 4.4771525-10 10-10s10 4.4771525 10 10z" fill="#c6d8fb"/><path id="Path" d="m56.07 6.93c-2.2358084-2.26425717-5.4286267-3.30741833-8.57-2.8 4.8861784.73184267 8.501026 4.92931864 8.5 9.87v32c-.0058583 4.9391023-3.6167748 9.1341376-8.5 9.875 2.8835331.4624917 5.8244372-.3680497 8.0400596-2.2705951 2.2156225-1.9025453 3.4812042-4.6840951 3.4599404-7.6044049v-32c.0028508-2.6526274-1.0516103-5.19700974-2.93-7.07z" fill="#a4c3fd"/><circle id="Oval" cx="49" cy="30" fill="#a4c2f7" r="6"/><circle id="Oval" cx="49" cy="14" fill="#a4c2f7" r="6"/><circle id="Oval" cx="49" cy="46" fill="#a4c2f7" r="6"/><path id="Path" d="m5 3v54c.0032948 1.1032019.89679813 1.9967052 2 2h3c-1.10320187-.0032948-1.9967052-.8967981-2-2v-54c.0032948-1.10320187.89679813-1.9967052 2-2h-3c-1.10320187.0032948-1.9967052.89679813-2 2z" fill="#fff"/><path id="Rectangle" d="m4 49h2v8h-2z" fill="#fff"/><g fill="#428dff"><circle id="Oval" cx="5" cy="53" r="1"/><path id="Path" d="m16 9c.5522847 0 1-.44771525 1-1v-1c0-.55228475-.4477153-1-1-1s-1 .44771525-1 1v1c0 .55228475.4477153 1 1 1z"/><path id="Path" d="m15 13c0 .5522847.4477153 1 1 1s1-.4477153 1-1v-1c0-.5522847-.4477153-1-1-1s-1 .4477153-1 1z"/><path id="Path" d="m15 18c0 .5522847.4477153 1 1 1s1-.4477153 1-1v-1c0-.5522847-.4477153-1-1-1s-1 .4477153-1 1z"/><path id="Path" d="m15 23c0 .5522847.4477153 1 1 1s1-.4477153 1-1v-1c0-.5522847-.4477153-1-1-1s-1 .4477153-1 1z"/><path id="Path" d="m15 28c0 .5522847.4477153 1 1 1s1-.4477153 1-1v-1c0-.5522847-.4477153-1-1-1s-1 .4477153-1 1z"/><path id="Path" d="m15 33c0 .5522847.4477153 1 1 1s1-.4477153 1-1v-1c0-.5522847-.4477153-1-1-1s-1 .4477153-1 1z"/><path id="Path" d="m15 38c0 .5522847.4477153 1 1 1s1-.4477153 1-1v-1c0-.5522847-.4477153-1-1-1s-1 .4477153-1 1z"/><path id="Path" d="m15 43c0 .5522847.4477153 1 1 1s1-.4477153 1-1v-1c0-.5522847-.4477153-1-1-1s-1 .4477153-1 1z"/><path id="Path" d="m15 48c0 .5522847.4477153 1 1 1s1-.4477153 1-1v-1c0-.5522847-.4477153-1-1-1s-1 .4477153-1 1z"/><path id="Path" d="m15 53c0 .5522847.4477153 1 1 1s1-.4477153 1-1v-1c0-.5522847-.4477153-1-1-1s-1 .4477153-1 1z"/><path id="Shape" d="m50 3.051v-.051c0-1.65685425-1.3431458-3-3-3h-40c-1.65685425 0-3 1.34314575-3 3v6h-3c-.55228475 0-1 .44771525-1 1 0 .5522847.44771525 1 1 1h3v8h-3c-.55228475 0-1 .4477153-1 1s.44771525 1 1 1h3v8h-3c-.55228475 0-1 .4477153-1 1s.44771525 1 1 1h3v8h-3c-.55228475 0-1 .4477153-1 1s.44771525 1 1 1h3v8h-3c-.55228475 0-1 .4477153-1 1s.44771525 1 1 1h6.184c.4870363 1.3775467 1.89566623 2.2038721 3.3357331 1.9567957 1.4400668-.2470764 2.492694-1.4956868 2.492694-2.9567957s-1.0526272-2.7097193-2.492694-2.9567957c-1.44006687-.2470764-2.8486968.579249-3.3357331 1.9567957h-1.184v-8h1.184c.4870363 1.3775467 1.89566623 2.2038721 3.3357331 1.9567957 1.4400668-.2470764 2.492694-1.4956868 2.492694-2.9567957s-1.0526272-2.7097193-2.492694-2.9567957c-1.44006687-.2470764-2.8486968.579249-3.3357331 1.9567957h-1.184v-8h1.184c.4870363 1.3775467 1.89566623 2.2038721 3.3357331 1.9567957 1.4400668-.2470764 2.492694-1.4956868 2.492694-2.9567957s-1.0526272-2.7097193-2.492694-2.9567957c-1.44006687-.2470764-2.8486968.579249-3.3357331 1.9567957h-1.184v-8h1.184c.4870363 1.3775467 1.89566623 2.2038721 3.3357331 1.9567957 1.4400668-.2470764 2.492694-1.4956868 2.492694-2.9567957s-1.0526272-2.7097193-2.492694-2.9567957c-1.44006687-.2470764-2.8486968.579249-3.3357331 1.9567957h-1.184v-8h1.184c.4870363 1.3775467 1.89566623 2.2038721 3.3357331 1.9567957 1.4400668-.2470764 2.492694-1.4956868 2.492694-2.9567957s-1.0526272-2.70971927-2.492694-2.95679568c-1.44006687-.24707641-2.8486968.57924899-3.3357331 1.95679568h-1.184v-6c0-.55228475.44771525-1 1-1h8v1c0 .55228475.4477153 1 1 1s1-.44771525 1-1v-1h30c.5522847 0 1 .44771525 1 1v.051c-5.6597746.52139167-9.9924749 5.26526524-10 10.949v32c.0075251 5.6837348 4.3402254 10.4276083 10 10.949v.051c0 .5522847-.4477153 1-1 1h-30v-1c0-.5522847-.4477153-1-1-1s-1 .4477153-1 1v1h-8c-.55228475 0-1-.4477153-1-1s-.44771525-1-1-1-1 .4477153-1 1c0 1.6568542 1.34314575 3 3 3h40c1.6568542 0 3-1.3431458 3-3v-.051c5.6597746-.5213917 9.9924749-5.2652652 10-10.949v-32c-.0075251-5.68373476-4.3402254-10.42760833-10-10.949zm-40 45.949c.5522847 0 1 .4477153 1 1s-.4477153 1-1 1c-.55228475 0-1-.4477153-1-1s.44771525-1 1-1zm0-10c.5522847 0 1 .4477153 1 1s-.4477153 1-1 1c-.55228475 0-1-.4477153-1-1s.44771525-1 1-1zm0-10c.5522847 0 1 .4477153 1 1s-.4477153 1-1 1c-.55228475 0-1-.4477153-1-1s.44771525-1 1-1zm0-10c.5522847 0 1 .4477153 1 1s-.4477153 1-1 1c-.55228475 0-1-.4477153-1-1s.44771525-1 1-1zm0-10c.5522847 0 1 .44771525 1 1 0 .5522847-.4477153 1-1 1-.55228475 0-1-.4477153-1-1 0-.55228475.44771525-1 1-1zm48 37c-.0000001 4.9705626-4.0294374 8.9999997-9 8.9999997s-8.9999999-4.0294371-9-8.9999997v-32c.0000001-4.97056264 4.0294374-8.99999973 9-8.99999973s8.9999999 4.02943709 9 8.99999973z" fill-rule="nonzero"/><path id="Shape" d="m49 23c-3.8659932 0-7 3.1340068-7 7s3.1340068 7 7 7 7-3.1340068 7-7c-.0044086-3.8641657-3.1358343-6.9955914-7-7zm0 12c-2.7614237 0-5-2.2385763-5-5s2.2385763-5 5-5 5 2.2385763 5 5c-.0033061 2.7600532-2.2399468 4.9966939-5 5z" fill-rule="nonzero"/><path id="Shape" d="m49 7c-3.8659932 0-7 3.1340068-7 7s3.1340068 7 7 7 7-3.1340068 7-7c-.0044086-3.8641657-3.1358343-6.99559136-7-7zm0 12c-2.7614237 0-5-2.2385763-5-5s2.2385763-5 5-5 5 2.2385763 5 5c-.0033061 2.7600532-2.2399468 4.9966939-5 5z" fill-rule="nonzero"/><path id="Path" d="m49 11c-1.6568542 0-3 1.3431458-3 3 0 .5522847.4477153 1 1 1s1-.4477153 1-1 .4477153-1 1-1 1-.4477153 1-1-.4477153-1-1-1z"/><path id="Path" d="m49 27c-1.6568542 0-3 1.3431458-3 3 0 .5522847.4477153 1 1 1s1-.4477153 1-1 .4477153-1 1-1 1-.4477153 1-1-.4477153-1-1-1z"/><path id="Path" d="m49 43c-1.6568542 0-3 1.3431458-3 3 0 .5522847.4477153 1 1 1s1-.4477153 1-1 .4477153-1 1-1 1-.4477153 1-1-.4477153-1-1-1z"/><path id="Shape" d="m49 39c-3.8659932 0-7 3.1340068-7 7s3.1340068 7 7 7 7-3.1340068 7-7c-.0044086-3.8641657-3.1358343-6.9955914-7-7zm0 12c-2.7614237 0-5-2.2385763-5-5s2.2385763-5 5-5 5 2.2385763 5 5c-.0033061 2.7600532-2.2399468 4.9966939-5 5z" fill-rule="nonzero"/><path id="Path" d="m35 8h-13c-.5522847 0-1 .44771525-1 1s.4477153 1 1 1h13c.5522847 0 1-.44771525 1-1s-.4477153-1-1-1z"/><path id="Path" d="m22 16h4c.5522847 0 1-.4477153 1-1s-.4477153-1-1-1h-4c-.5522847 0-1 .4477153-1 1s.4477153 1 1 1z"/><path id="Path" d="m35 14h-5c-.5522847 0-1 .4477153-1 1s.4477153 1 1 1h5c.5522847 0 1-.4477153 1-1s-.4477153-1-1-1z"/><path id="Path" d="m22 22h10c.5522847 0 1-.4477153 1-1s-.4477153-1-1-1h-10c-.5522847 0-1 .4477153-1 1s.4477153 1 1 1z"/><path id="Path" d="m22 28h13c.5522847 0 1-.4477153 1-1s-.4477153-1-1-1h-13c-.5522847 0-1 .4477153-1 1s.4477153 1 1 1z"/></g></g></g></svg>