<svg xmlns="http://www.w3.org/2000/svg" viewBox="268.39 0 397.06 594.44">

 <g>
  <title>Layer 1</title>
  <circle id="svg_1" fill="#306d34" r="46" cy="548" cx="431.39281"/>
  <circle id="svg_4" fill="#f2f2f2" r="24" cy="115" cx="292.39281"/>
  <circle id="svg_5" fill="#f2f2f2" r="24" cy="24" cx="433.39281"/>
  <circle id="svg_6" fill="#f2f2f2" r="24" cy="126" cx="521.39281"/>
  <circle id="svg_7" fill="#f2f2f2" r="24" cy="244" cx="402.39281"/>
  <circle id="svg_9" fill="#f2f2f2" r="24" cy="390" cx="411.39281"/>
  <circle id="svg_10" fill="#f2f2f2" r="24" cy="437" cx="527.39281"/>
  <path id="svg_12" fill="#306d34" d="m426.46532,68.00342c-71.89185,0.50782 -130.75611,58.92987 -131.77735,130.81635c-0.00946,0.66369 -0.01381,5.33048 -0.01324,11.43422a33.74778,33.74778 0 0 0 33.74387,33.746l0.00007,0a33.76855,33.76855 0 0 0 33.76114,-33.79775c-0.00343,-4.15211 -0.00551,-7.02584 -0.00551,-7.20227a64.00037,64.00037 0 1 1 98.52027,53.8794l0.01171,0.01422s-48.02832,30.91956 -62.67089,73.33545l0.01245,0.003a94.00389,94.00389 0 0 0 -3.87354,26.76794c0,3.72538 0.21916,36.32138 0.64261,62.77767a34.78649,34.78649 0 0 0 34.79009,34.22233l0.00007,0a34.79588,34.79588 0 0 0 34.79384,-35.01061c-0.14706,-24.22912 -0.22661,-52.44168 -0.22661,-54.48939c0,-26.04473 25.12525,-51.99475 45.76367,-68.91741c23.76587,-19.48694 40.86792,-46.04291 47.73706,-75.99909a86.7618,86.7618 0 0 0 2.49927,-18.8335a132.75,132.75 0 0 0 -133.70898,-132.74656z"/>
  <circle id="svg_14" fill="#2f2e41" r="30" cy="239.9959" cx="572.44885"/>
  <polygon id="svg_15" fill="#a0616a" points="517.0120239257812,579.1290283203125 504.75299072265625,579.1290283203125 498.91998291015625,531.8410034179688 517.0150146484375,531.8410034179688 517.0120239257812,579.1290283203125 "/>
  <path id="svg_16" fill="#2f2e41" d="m495.99554,575.62562l23.64387,0a0,0 0 0 1 0,0l0,14.88687a0,0 0 0 1 0,0l-38.53073,0a0,0 0 0 1 0,0l0,0a14.88686,14.88686 0 0 1 14.88686,-14.88687z"/>
  <polygon id="svg_17" fill="#a0616a" points="612.0120239257812,579.1290283203125 599.7529907226562,579.1290283203125 593.9199829101562,531.8410034179688 612.0150146484375,531.8410034179688 612.0120239257812,579.1290283203125 "/>
  <path id="svg_18" fill="#2f2e41" d="m590.99554,575.62562l23.64387,0a0,0 0 0 1 0,0l0,14.88687a0,0 0 0 1 0,0l-38.53073,0a0,0 0 0 1 0,0l0,0a14.88686,14.88686 0 0 1 14.88686,-14.88687z"/>
  <circle id="svg_19" fill="#a0616a" r="24.56103" cy="245.61007" cx="567.88979"/>
  <path id="svg_20" fill="#2f2e41" d="m582.52892,349.40588l10.98975,-25.25a31.38253,31.38253 0 0 0 -6.94971,-35.6a31.87322,31.87322 0 0 0 -3.07031,-2.67a30.93522,30.93522 0 0 0 -18.98975,-6.57a32.179,32.179 0 0 0 -13.3999,2.98c-0.36035,0.16 -0.71,0.33 -1.07031,0.5c-0.68994,0.33 -1.36963,0.69 -2.02979,1.06a31.67823,31.67823 0 0 0 -15.70019,23.88l-4.8501,40.64c-1.21973,3.19 -44.73975,118.39 -29.51953,206.34a4.46692,4.46692 0 0 0 3.81982,3.67l15.43018,2.1a4.49661,4.49661 0 0 0 5.00976,-3.53l25.89014,-123.41a3.50323,3.50323 0 0 1 6.79981,-0.23l36.58007,129.78a4.47129,4.47129 0 0 0 4.31006,3.28a5.12184,5.12184 0 0 0 0.87012,-0.08l18.84961,-3.63a4.471,4.471 0 0 0 3.63037,-4.81c-2.77002,-30.89 -17.49023,-185.61998 -36.6001,-208.45z"/>
  <path id="svg_21" fill="#a0616a" d="m472.43935,266.04987a10.05576,10.05576 0 0 0 10.59434,11.20341l13.72894,32.99236l10.385,-15.3943l-14.62937,-28.97a10.11027,10.11027 0 0 0 -20.07892,0.16852l0.00001,0.00001z"/>
  <path id="svg_22" fill="#a0616a" d="m566.52794,382.62631a10.05577,10.05577 0 0 0 8.42651,-12.91316l28.88533,-21.03846l-17.39036,-6.51224l-24.76387,20.97687a10.11028,10.11028 0 0 0 4.84239,19.487l0,-0.00001z"/>
  <path id="svg_23" fill="#2f2e41" d="m519.43957,332.24102a17.05692,17.05692 0 0 1 -3.29834,-0.32519a16.30539,16.30539 0 0 1 -11.94751,-9.61621l-19.23438,-23.45313a4.50075,4.50075 0 0 1 1.11109,-6.68066l13.68432,-8.4707a4.50007,4.50007 0 0 1 6.21533,1.49023l13.5564,22.334l25.96143,-19.18658a9.72146,9.72146 0 0 1 11.30978,15.56156l-25.91186,23.63672a16.25271,16.25271 0 0 1 -11.44626,4.70996z"/>
  <path id="svg_24" fill="#2f2e41" d="m589.58969,367.51348c-0.03515,0 -0.07055,0 -0.10571,-0.001a4.50783,4.50783 0 0 1 -3.31079,-1.57031l-12.16626,-14.19336a4.49979,4.49979 0 0 1 0.92041,-6.67286l22.78149,-15.1875l-20.63842,-24.8125a9.721,9.721 0 0 1 14.8872,-12.18261l25.0835,24.51269a16.52481,16.52481 0 0 1 -3.67529,26.94043l-20.50122,21.75391a4.50742,4.50742 0 0 1 -3.27491,1.41311z"/>
  <path id="svg_25" fill="#e6e6e6" d="m561.64476,315.21436a4.63212,4.63212 0 0 1 -0.584,-0.03711a4.46111,4.46111 0 0 1 -3.71045,-3.06885l-9.14234,-28.02929a3.08255,3.08255 0 0 1 1.594,-3.72461l0.29663,-0.14014c0.269,-0.12793 0.5354,-0.25439 0.80737,-0.37549a32.57412,32.57412 0 0 1 13.603,-3.023a31.327,31.327 0 0 1 17.16138,5.15674a3.13007,3.13007 0 0 1 0.90136,4.29443l-17.15009,26.86774a4.45513,4.45513 0 0 1 -3.77686,2.07958z"/>
  <circle id="svg_26" fill="#2f2e41" r="9.81668" cy="216.78616" cx="596.1011"/>
  <path id="svg_27" fill="#2f2e41" d="m562.44884,205.99591l0,0a26,26 0 0 0 -26,25.99994l0,11.00006l13.5293,0l6.4707,-11l1.94141,11l41.05859,0l-11,-11.00006a26,26 0 0 0 -26,-25.99994z"/>
  <path id="svg_28" fill="#2f2e41" d="m601.14652,210.06199a15.15,15.15 0 0 1 16.48081,-10.39558c6.256,1.04586 11.20228,6.07455 14.14944,11.69107s4.30806,11.90252 6.28935,17.92793s4.79124,12.08362 9.79306,15.984s12.67721,4.9584 17.58966,0.94607a20.11809,20.11809 0 0 1 -37.47706,7.18124c-2.59206,-4.61172 -3.26121,-10.01684 -4.02988,-15.251s-1.7674,-10.6498 -4.86211,-14.94043s-8.88772,-7.09293 -13.80374,-5.13859l-4.12953,-8.00471z"/>
  <path id="svg_29" fill="#3f3d56" d="m337.94652,228.03833l0,0a33.748,33.748 0 0 1 -33.74414,-33.746c-0.00049,-6.10376 0.0039,-10.77051 0.01318,-11.4342a131.50724,131.50724 0 0 1 15.35889,-59.90875a131.80321,131.80321 0 0 0 -25.35889,75.90875c-0.00928,0.66369 -0.01367,5.33044 -0.01318,11.4342a33.748,33.748 0 0 0 33.74414,33.746l0,0a33.77281,33.77281 0 0 0 32.48779,-24.59055a33.62247,33.62247 0 0 1 -22.48779,8.59055z"/>
  <path id="svg_30" fill="#3f3d56" d="m428.75269,139.10926a64.00385,64.00385 0 0 1 55.65918,89.413a63.9972,63.9972 0 1 0 -107.42578,-66.98523a63.87073,63.87073 0 0 1 51.7666,-22.42777z"/>
  <path id="svg_31" fill="#3f3d56" d="m439.13451,438.03833l0,0a34.78682,34.78682 0 0 1 -34.79,-34.22235c-0.42334,-26.45629 -0.64258,-59.0523 -0.64258,-62.77765a94.00389,94.00389 0 0 1 3.87354,-26.76794l-0.01221,-0.003a95.069,95.069 0 0 1 5.49414,-12.70087a110.04745,110.04745 0 0 0 -15.49414,28.70087l0.01221,0.003a94.00389,94.00389 0 0 0 -3.87354,26.76794c0,3.72535 0.21924,36.32136 0.64258,62.77765a34.78682,34.78682 0 0 0 34.79,34.22235l0,0a34.80287,34.80287 0 0 0 33.40185,-25.04846a34.66005,34.66005 0 0 1 -23.40185,9.04846z"/>
  <path id="svg_45" fill="#3f3d56" d="m421.25812,582.78a45.99375,45.99375 0 0 1 -17.07033,-71.4888a45.99715,45.99715 0 1 0 62.56892,66.464a45.96919,45.96919 0 0 1 -45.49859,5.0248z"/>
 </g>
</svg>